# xmcd
#
# Track frame offsets:
#	150
#	15054
#	32285
#	48594
#	62389
#	77049
#	94240
#	109966
#	128101
#	144745
#	159973
#	175152
#	189831
#	206277
#	222450
#	237684
#	252600
#	270594
#	287103
#	303212
#	330409
#
# Disc length: 4733 seconds
#
# Revision: 0
# Processed by: cddbd v1.4PL0 Copyright (c) Steve Scherf et al.
# Submitted via: audiograbber 1.80.04
#
DISCID=1f127b15
DTITLE=Britney Spears - Music collection 
DYEAR=2001
DGENRE=Pop
TTITLE0=Ooops! I did it again
TTITLE1=[You drive me] Crazy [The stop remix]
TTITLE2=Don't let me be the last to know
TTITLE3=Baby one more time
TTITLE4=Sometimes
TTITLE5=(I can't get no) Satifaction
TTITLE6=From the bottom of my broken heart
TTITLE7=Born to make you happy
TTITLE8=Where are you now
TTITLE9=Lucky
TTITLE10=Stronger
TTITLE11=Can't make you love me
TTITLE12=E-mail my heart
TTITLE13=When your eyes say it
TTITLE14=One kiss from you
TTITLE15=I will still love you [Duet with don philip]
TTITLE16=I'll never stop loving you
TTITLE17=Girl in the mirror
TTITLE18=(You drive me) Crazy
TTITLE19=Bonus track
TTITLE20=Data Track
EXTD=CuLer
EXTT0=
EXTT1=
EXTT2=
EXTT3=
EXTT4=
EXTT5=
EXTT6=
EXTT7=
EXTT8=
EXTT9=
EXTT10=
EXTT11=
EXTT12=
EXTT13=
EXTT14=
EXTT15=
EXTT16=
EXTT17=
EXTT18=
EXTT19=
EXTT20=
PLAYORDER=
